#N canvas 90 94 1163 619 10;
#X obj 129 597 dac~;
#X obj 170 175 -~ 0.5;
#X obj 170 195 *~ 2;
#X obj 138 229 min~ 0;
#X obj 195 228 max~ 0;
#X obj 195 251 *~;
#X obj 96 326 wrap~;
#X obj 96 349 cos~;
#X obj 96 370 *~;
#X obj 129 468 +~;
#X obj 96 413 +~;
#X obj 199 278 *~;
#X obj 96 304 *~;
#X obj 96 391 *~ 0.5;
#X obj 24 243 nbx 10 20 -1e+37 1e+37 0 0 empty empty wing-resonance
0 -12 1 10 -204786 -4160 -4160 153.956 256;
#X obj 19 268 / 100;
#X obj 129 495 hip~ 700;
#X obj 167 7 phasor~;
#X obj 209 37 *~ -1;
#X obj 209 58 +~ 1;
#X obj 145 101 min~;
#X obj 211 102 min~;
#X obj 170 133 min~;
#X obj 145 70 *~ 0.2;
#X obj 170 155 *~ 6;
#X obj 166 -20 nbx 10 20 -1e+37 1e+37 0 0 empty empty wing-frequency
0 -12 1 10 -204786 -4160 -4160 0 256;
#N canvas 0 22 450 300 grapha 0;
#X obj 100 100 cnv 15 100 100 empty empty empty 20 12 0 14 -262144
-66577 0;
#N canvas 0 22 450 300 (subpatch) 0;
#X array A 100 float 0;
#X coords 0 1 99 -1 100 100 1;
#X restore 100 100 graph;
#X obj 210 209 tabwrite~ A;
#X obj 289 155 inlet~;
#X obj 210 130 loadbang;
#X obj 278 131 bng 15 250 50 0 empty empty empty 0 -6 0 8 -262144 -1
-1;
#X obj 217 178 s b;
#X obj 210 155 metro 50;
#X connect 3 0 2 0;
#X connect 4 0 7 0;
#X connect 5 0 7 0;
#X connect 7 0 2 0;
#X connect 7 0 6 0;
#X coords 0 -1 1 1 100 100 1 100 100;
#X restore 30 -24 pd grapha;
#N canvas 0 22 450 300 grapha 0;
#X obj 100 100 cnv 15 100 100 empty empty empty 20 12 0 14 -262144
-66577 0;
#N canvas 0 22 450 300 (subpatch) 0;
#X array B 100 float 0;
#X coords 0 1 99 -1 100 100 1;
#X restore 100 100 graph;
#X obj 289 155 inlet~;
#X obj 210 182 tabwrite~ B;
#X obj 210 156 r b;
#X connect 2 0 3 0;
#X connect 4 0 3 0;
#X coords 0 -1 1 1 100 100 1 100 100;
#X restore 33 102 pd grapha;
#N canvas 0 22 450 300 grapha 0;
#X obj 100 100 cnv 15 100 100 empty empty empty 20 12 0 14 -262144
-66577 0;
#N canvas 0 22 450 300 (subpatch) 0;
#X array C 100 float 0;
#X coords 0 1 99 -1 100 100 1;
#X restore 100 100 graph;
#X obj 289 155 inlet~;
#X obj 210 156 r b;
#X obj 210 182 tabwrite~ C;
#X connect 2 0 4 0;
#X connect 3 0 4 0;
#X coords 0 -1 1 1 100 100 1 100 100;
#X restore 203 308 pd grapha;
#N canvas 0 22 450 300 grapha 0;
#X obj 100 100 cnv 15 100 100 empty empty empty 20 12 0 14 -262144
-66577 0;
#N canvas 0 22 450 300 (subpatch) 0;
#X array D 100 float 0;
#X coords 0 1 99 -1 100 100 1;
#X restore 100 100 graph;
#X obj 289 155 inlet~;
#X obj 210 156 r b;
#X obj 210 182 tabwrite~ D;
#X connect 2 0 4 0;
#X connect 3 0 4 0;
#X coords 0 -1 1 1 100 100 1 100 100;
#X restore 18 469 pd grapha;
#N canvas 0 22 450 300 grapha 0;
#X obj 100 100 cnv 15 100 100 empty empty empty 20 12 0 14 -262144
-66577 0;
#N canvas 0 22 450 300 (subpatch) 0;
#X array E 100 float 0;
#X coords 0 1 99 -1 100 100 1;
#X restore 100 100 graph;
#X obj 289 155 inlet~;
#X obj 210 156 r b;
#X obj 210 182 tabwrite~ E;
#X connect 2 0 4 0;
#X connect 3 0 4 0;
#X coords 0 -1 1 1 100 100 1 100 100;
#X restore 186 599 pd grapha;
#X text 232 258 upstroke;
#X text 10 314 downstroke;
#X text 11 360 overshoot;
#X obj -23 238 vsl 15 138 70 283 0 0 empty empty empty 0 -9 0 10 -204786
-4160 -4160 5400 1;
#X obj 191 523 *~;
#X obj 252 564 line~;
#X msg 251 526 0 100;
#X obj 130 555 *~;
#X msg 251 500 0.5 100;
#X msg 242 -39 0;
#X text 301 526 off;
#X text 305 498 on;
#X obj 137 530 +~;
#X obj 146 442 *~ 0.5;
#X obj 508 206 r \$1;
#X obj 465 330 s \$1;
#X floatatom 547 259 5 0 0 0 - - -;
#X obj 473 248 nbx 5 14 -1e+37 1e+37 0 0 empty empty empty 0 -8 0 10
-262144 -1 -1 -2178.46 256;
#X obj 467 307 nbx 5 14 -1e+37 1e+37 0 0 empty empty empty 0 -8 0 10
-262144 -1 -1 -2178.46 256;
#X obj 533 310 nbx 5 14 -1e+37 1e+37 0 0 empty empty empty 0 -8 0 10
-262144 -1 -1 -2178.46 256;
#X obj 444 155 loadbang;
#X obj 527 281 + \$1;
#X msg 474 205 200;
#X obj 524 338 osc~ \$1;
#X msg 544 237 16.18;
#X msg 444 181 0;
#X text 439 130 Tonerhöhung;
#X obj 758 96 delay \$1;
#X floatatom 830 52 5 0 0 0 - - -;
#X obj 830 117 / 1.0618;
#X floatatom 831 144 5 0 0 0 - - -;
#X obj 747 69 bng 15 250 50 0 empty empty empty 17 7 0 10 -262144 -1
-1;
#X obj 774 129 bng 15 250 50 0 empty empty empty 17 7 0 10 -262144
-1 -1;
#X obj 727 -32 bng 35 250 50 0 empty empty empty 17 7 0 10 -159808
-257985 -257985;
#X obj 756 30 delay 1000;
#X msg 829 7 1000;
#X msg 876 52 set \$1;
#X obj 882 21 nbx 5 14 -1e+37 1e+37 0 0 empty empty empty 0 -8 0 10
-262144 -1 -1 52.955 256;
#X obj 478 181 bng 15 250 50 0 empty empty empty 17 7 0 10 -262144
-1 -1;
#X obj 880 84 nbx 5 14 -1e+37 1e+37 0 0 empty empty empty 0 -8 0 10
-262144 -1 -1 52.955 256;
#X text 784 -22 Beschleunigung;
#X obj 691 91 tgl 15 0 empty empty empty 17 7 0 10 -262144 -1 -1 0
1;
#X obj 764 154 t b b;
#X obj 794 217 bng 15 250 50 0 empty empty empty 17 7 0 10 -262144
-1 -1;
#X msg 688 61 set 0;
#X obj 829 169 moses 50;
#X msg 688 35 set 1;
#X obj 788 399 delay \$1;
#X floatatom 860 355 5 0 0 0 - - -;
#X floatatom 861 447 5 0 0 0 - - -;
#X obj 777 372 bng 15 250 50 0 empty empty empty 17 7 0 10 -262144
-1 -1;
#X obj 804 432 bng 15 250 50 0 empty empty empty 17 7 0 10 -262144
-1 -1;
#X obj 779 269 bng 35 250 50 0 empty empty empty 17 7 0 10 -13381 -4034
-4034;
#X msg 906 355 set \$1;
#X obj 912 324 nbx 5 14 -1e+37 1e+37 0 0 empty empty empty 0 -8 0 10
-262144 -1 -1 944.199 256;
#X obj 910 387 nbx 5 14 -1e+37 1e+37 0 0 empty empty empty 0 -8 0 10
-262144 -1 -1 944.199 256;
#X obj 721 394 tgl 15 0 empty empty empty 17 7 0 10 -262144 -1 -1 0
1;
#X obj 794 457 t b b;
#X obj 863 515 bng 15 250 50 0 empty empty empty 17 7 0 10 -262144
-1 -1;
#X msg 718 364 set 0;
#X msg 718 338 set 1;
#X obj 860 420 * 1.0618;
#X obj 858 472 moses 1000;
#X text 817 274 Entschleunigung;
#X msg 859 310 50;
#X obj 785 333 delay 50;
#X floatatom 602 260 5 0 0 0 - - -;
#X msg 599 238 -16.18;
#X text 506 130 /Erniedrigung;
#X obj 423 361 *~ 0.5;
#X obj 351 523 tgl 50 0 empty empty ON_/_OFF 0 15 0 10 -258113 -4032
-4032 1 1;
#X obj -22 206 r resonance;
#X obj 277 -36 r wing_frequency;
#X obj 360 467 hsl 128 15 0.1 1 0 0 empty empty empty -2 -8 0 10 -262144
-1 -1 6600 1;
#X obj 365 436 r volume;
#X connect 1 0 2 0;
#X connect 2 0 3 0;
#X connect 2 0 4 0;
#X connect 3 0 8 1;
#X connect 3 0 10 1;
#X connect 3 0 12 1;
#X connect 3 0 27 0;
#X connect 4 0 5 0;
#X connect 4 0 5 1;
#X connect 5 0 11 0;
#X connect 5 0 11 1;
#X connect 5 0 44 0;
#X connect 6 0 7 0;
#X connect 7 0 8 0;
#X connect 8 0 13 0;
#X connect 9 0 16 0;
#X connect 10 0 9 0;
#X connect 10 0 29 0;
#X connect 11 0 28 0;
#X connect 12 0 6 0;
#X connect 13 0 10 0;
#X connect 14 0 15 0;
#X connect 15 0 12 0;
#X connect 16 0 35 0;
#X connect 16 0 43 0;
#X connect 17 0 18 0;
#X connect 17 0 21 0;
#X connect 17 0 23 0;
#X connect 18 0 19 0;
#X connect 19 0 20 1;
#X connect 19 0 21 1;
#X connect 20 0 22 0;
#X connect 21 0 22 1;
#X connect 22 0 24 0;
#X connect 23 0 20 0;
#X connect 24 0 1 0;
#X connect 24 0 26 0;
#X connect 25 0 17 0;
#X connect 34 0 14 0;
#X connect 35 0 43 1;
#X connect 36 0 38 1;
#X connect 37 0 36 0;
#X connect 38 0 0 0;
#X connect 38 0 0 1;
#X connect 38 0 30 0;
#X connect 39 0 36 0;
#X connect 40 0 25 0;
#X connect 43 0 38 0;
#X connect 44 0 9 1;
#X connect 45 0 48 0;
#X connect 47 0 52 0;
#X connect 48 0 52 1;
#X connect 49 0 46 0;
#X connect 50 0 54 0;
#X connect 51 0 56 0;
#X connect 52 0 49 0;
#X connect 52 0 50 0;
#X connect 53 0 48 0;
#X connect 54 0 100 0;
#X connect 55 0 47 0;
#X connect 56 0 48 0;
#X connect 56 0 49 0;
#X connect 56 0 50 0;
#X connect 58 0 63 0;
#X connect 59 0 60 0;
#X connect 60 0 61 0;
#X connect 61 0 58 1;
#X connect 61 0 76 0;
#X connect 62 0 58 0;
#X connect 63 0 73 0;
#X connect 64 0 66 0;
#X connect 64 0 65 0;
#X connect 64 0 77 0;
#X connect 64 0 53 0;
#X connect 65 0 62 0;
#X connect 66 0 59 0;
#X connect 67 0 70 0;
#X connect 68 0 67 0;
#X connect 69 0 53 0;
#X connect 70 0 60 0;
#X connect 72 0 55 0;
#X connect 73 0 70 0;
#X connect 73 1 72 0;
#X connect 74 0 75 0;
#X connect 75 0 72 0;
#X connect 76 0 74 0;
#X connect 76 1 68 0;
#X connect 76 1 62 0;
#X connect 77 0 72 0;
#X connect 78 0 82 0;
#X connect 79 0 92 0;
#X connect 80 0 78 1;
#X connect 80 0 93 0;
#X connect 81 0 78 0;
#X connect 82 0 88 0;
#X connect 83 0 95 0;
#X connect 83 0 91 0;
#X connect 83 0 96 0;
#X connect 84 0 86 0;
#X connect 85 0 84 0;
#X connect 86 0 92 0;
#X connect 87 0 98 0;
#X connect 88 0 86 0;
#X connect 88 1 87 0;
#X connect 89 0 90 0;
#X connect 90 0 87 0;
#X connect 91 0 87 0;
#X connect 92 0 80 0;
#X connect 93 0 85 0;
#X connect 93 0 81 0;
#X connect 93 1 89 0;
#X connect 95 0 79 0;
#X connect 96 0 81 0;
#X connect 97 0 52 0;
#X connect 98 0 97 0;
#X connect 100 0 35 1;
#X connect 101 0 36 0;
#X connect 102 0 14 0;
#X connect 103 0 25 0;
#X connect 104 0 36 0;
#X connect 105 0 104 0;