#N canvas 315 22 1072 844 10;
#X obj 129 597 dac~;
#X obj 170 175 -~ 0.5;
#X obj 170 195 *~ 2;
#X obj 138 229 min~ 0;
#X obj 195 228 max~ 0;
#X obj 195 251 *~;
#X obj 96 326 wrap~;
#X obj 96 349 cos~;
#X obj 96 370 *~;
#X obj 129 468 +~;
#X obj 96 413 +~;
#X obj 195 274 *~;
#X obj 96 304 *~;
#X obj 96 391 *~ 0.5;
#X obj 19 249 nbx 5 14 -1e+37 1e+37 0 0 empty empty wing-resonance
0 -12 1 10 -262144 -1 -1 269.583 256;
#X obj 19 268 / 100;
#X obj 129 495 hip~ 700;
#X obj 167 7 phasor~;
#X obj 209 37 *~ -1;
#X obj 209 58 +~ 1;
#X obj 145 101 min~;
#X obj 211 102 min~;
#X obj 170 133 min~;
#X obj 145 70 *~ 0.2;
#X obj 170 155 *~ 6;
#X obj 167 -23 nbx 5 14 -1e+37 1e+37 0 0 empty empty wing-frequency
0 -12 1 10 -262144 -1 -1 0 256;
#N canvas 0 22 450 300 grapha 0;
#X obj 100 100 cnv 15 100 100 empty empty empty 20 12 0 14 -262144
-66577 0;
#N canvas 0 22 450 300 (subpatch) 0;
#X array A 100 float 0;
#X coords 0 1 99 -1 100 100 1;
#X restore 100 100 graph;
#X obj 210 209 tabwrite~ A;
#X obj 289 155 inlet~;
#X obj 210 130 loadbang;
#X obj 278 131 bng 15 250 50 0 empty empty empty 0 -6 0 8 -262144 -1
-1;
#X obj 217 178 s b;
#X obj 210 155 metro 50;
#X connect 3 0 2 0;
#X connect 4 0 7 0;
#X connect 5 0 7 0;
#X connect 7 0 2 0;
#X connect 7 0 6 0;
#X coords 0 -1 1 1 100 100 1 100 100;
#X restore 19 -4 pd grapha;
#N canvas 0 22 450 300 grapha 0;
#X obj 100 100 cnv 15 100 100 empty empty empty 20 12 0 14 -262144
-66577 0;
#N canvas 0 22 450 300 (subpatch) 0;
#X array B 100 float 0;
#X coords 0 1 99 -1 100 100 1;
#X restore 100 100 graph;
#X obj 289 155 inlet~;
#X obj 210 182 tabwrite~ B;
#X obj 210 156 r b;
#X connect 2 0 3 0;
#X connect 4 0 3 0;
#X coords 0 -1 1 1 100 100 1 100 100;
#X restore 22 122 pd grapha;
#N canvas 0 22 450 300 grapha 0;
#X obj 100 100 cnv 15 100 100 empty empty empty 20 12 0 14 -262144
-66577 0;
#N canvas 0 22 450 300 (subpatch) 0;
#X array C 100 float 0;
#X coords 0 1 99 -1 100 100 1;
#X restore 100 100 graph;
#X obj 289 155 inlet~;
#X obj 210 156 r b;
#X obj 210 182 tabwrite~ C;
#X connect 2 0 4 0;
#X connect 3 0 4 0;
#X coords 0 -1 1 1 100 100 1 100 100;
#X restore 203 308 pd grapha;
#N canvas 0 22 450 300 grapha 0;
#X obj 100 100 cnv 15 100 100 empty empty empty 20 12 0 14 -262144
-66577 0;
#N canvas 0 22 450 300 (subpatch) 0;
#X array D 100 float 0;
#X coords 0 1 99 -1 100 100 1;
#X restore 100 100 graph;
#X obj 289 155 inlet~;
#X obj 210 156 r b;
#X obj 210 182 tabwrite~ D;
#X connect 2 0 4 0;
#X connect 3 0 4 0;
#X coords 0 -1 1 1 100 100 1 100 100;
#X restore 18 469 pd grapha;
#N canvas 0 22 450 300 grapha 0;
#X obj 100 100 cnv 15 100 100 empty empty empty 20 12 0 14 -262144
-66577 0;
#N canvas 0 22 450 300 (subpatch) 0;
#X array E 100 float 0;
#X coords 0 1 99 -1 100 100 1;
#X restore 100 100 graph;
#X obj 289 155 inlet~;
#X obj 210 156 r b;
#X obj 210 182 tabwrite~ E;
#X connect 2 0 4 0;
#X connect 3 0 4 0;
#X coords 0 -1 1 1 100 100 1 100 100;
#X restore 186 599 pd grapha;
#X text 232 258 upstroke;
#X text 10 314 downstroke;
#X text 11 360 overshoot;
#X obj 146 442 *~ 2;
#X obj 92 773 writesf~ 2;
#X msg 34 701 start;
#X msg 39 757 stop;
#X obj 35 676 delay 10;
#X obj 37 632 bng 15 250 50 0 empty empty empty 17 7 0 10 -262144 -1
-1;
#X obj -32 226 vsl 15 128 70 283 0 0 empty empty empty 0 -9 0 10 -262144
-1 -1 11900 1;
#X obj 460 218 r \$1;
#X obj 417 342 s \$1;
#X floatatom 499 271 5 0 0 0 - - -;
#X obj 427 248 nbx 5 14 -1e+37 1e+37 0 0 empty empty empty 0 -8 0 10
-262144 -1 -1 992.82 256;
#X obj 419 319 nbx 5 14 -1e+37 1e+37 0 0 empty empty empty 0 -8 0 10
-262144 -1 -1 992.82 256;
#X obj 485 322 nbx 5 14 -1e+37 1e+37 0 0 empty empty empty 0 -8 0 10
-262144 -1 -1 992.82 256;
#X obj 396 167 loadbang;
#X obj 479 293 + \$1;
#X msg 426 217 200;
#X obj 476 350 osc~ \$1;
#X msg 496 249 16.18;
#X msg 396 193 0;
#X text 391 142 Tonerhöhung;
#X obj 131 529 *~;
#X obj -24 730 delay 20000;
#X obj 710 108 delay \$1;
#X floatatom 782 64 5 0 0 0 - - -;
#X obj 782 129 / 1.0618;
#X floatatom 783 156 5 0 0 0 - - -;
#X obj 699 81 bng 15 250 50 0 empty empty empty 17 7 0 10 -262144 -1
-1;
#X obj 726 141 bng 15 250 50 0 empty empty empty 17 7 0 10 -262144
-1 -1;
#X obj 707 14 bng 15 250 50 0 empty empty empty 17 7 0 10 -262144 -1
-1;
#X obj 708 42 delay 1000;
#X msg 781 19 1000;
#X msg 828 64 set \$1;
#X obj 834 33 nbx 5 14 -1e+37 1e+37 0 0 empty empty empty 0 -8 0 10
-262144 -1 -1 52.955 256;
#X obj 430 193 bng 15 250 50 0 empty empty empty 17 7 0 10 -262144
-1 -1;
#X obj 832 96 nbx 5 14 -1e+37 1e+37 0 0 empty empty empty 0 -8 0 10
-262144 -1 -1 52.955 256;
#X text 828 0 Beschleunigung;
#X obj 643 103 tgl 15 0 empty empty empty 17 7 0 10 -262144 -1 -1 0
1;
#X obj 716 166 t b b;
#X obj 746 229 bng 15 250 50 0 empty empty empty 17 7 0 10 -262144
-1 -1;
#X msg 640 73 set 0;
#X obj 781 181 moses 50;
#X msg 640 47 set 1;
#X obj 740 411 delay \$1;
#X floatatom 812 367 5 0 0 0 - - -;
#X floatatom 813 459 5 0 0 0 - - -;
#X obj 729 384 bng 15 250 50 0 empty empty empty 17 7 0 10 -262144
-1 -1;
#X obj 756 444 bng 15 250 50 0 empty empty empty 17 7 0 10 -262144
-1 -1;
#X obj 737 317 bng 15 250 50 0 empty empty empty 17 7 0 10 -262144
-1 -1;
#X msg 858 367 set \$1;
#X obj 864 336 nbx 5 14 -1e+37 1e+37 0 0 empty empty empty 0 -8 0 10
-262144 -1 -1 944.199 256;
#X obj 862 399 nbx 5 14 -1e+37 1e+37 0 0 empty empty empty 0 -8 0 10
-262144 -1 -1 944.199 256;
#X obj 673 406 tgl 15 0 empty empty empty 17 7 0 10 -262144 -1 -1 0
1;
#X obj 746 469 t b b;
#X obj 815 527 bng 15 250 50 0 empty empty empty 17 7 0 10 -262144
-1 -1;
#X msg 670 376 set 0;
#X msg 670 350 set 1;
#X obj 812 432 * 1.0618;
#X obj 810 484 moses 1000;
#X text 847 297 Entschleunigung;
#X msg 811 322 50;
#X obj 737 345 delay 50;
#X floatatom 554 272 5 0 0 0 - - -;
#X msg 551 250 -16.18;
#X text 458 142 /Erniedrigung;
#X obj 252 564 line~;
#X msg 251 526 0 100;
#X obj 130 555 *~;
#X msg 251 500 0.5 100;
#X msg 242 -39 0;
#X text 301 526 off;
#X text 305 498 on;
#X text -18 629 Aufnahme;
#X obj 395 48 readsf~;
#X msg 349 -13 start;
#X msg 347 14 stop;
#X obj 540 89 bng 15 250 50 0 empty empty empty 17 7 0 10 -262144 -1
-1;
#X obj 463 80 delay 1;
#X obj 307 451 *~;
#X msg 441 -7 open _samples/fliege7.wav;
#X msg 112 733 open _samples/fliegewings20.wav;
#X connect 1 0 2 0;
#X connect 2 0 3 0;
#X connect 2 0 4 0;
#X connect 3 0 8 1;
#X connect 3 0 10 1;
#X connect 3 0 12 1;
#X connect 3 0 27 0;
#X connect 4 0 5 0;
#X connect 4 0 5 1;
#X connect 5 0 11 0;
#X connect 5 0 11 1;
#X connect 6 0 7 0;
#X connect 7 0 8 0;
#X connect 8 0 13 0;
#X connect 9 0 16 0;
#X connect 10 0 9 0;
#X connect 10 0 29 0;
#X connect 11 0 28 0;
#X connect 11 0 34 0;
#X connect 12 0 6 0;
#X connect 13 0 10 0;
#X connect 14 0 15 0;
#X connect 15 0 12 0;
#X connect 16 0 54 0;
#X connect 17 0 18 0;
#X connect 17 0 21 0;
#X connect 17 0 23 0;
#X connect 18 0 19 0;
#X connect 19 0 20 1;
#X connect 19 0 21 1;
#X connect 20 0 22 0;
#X connect 21 0 22 1;
#X connect 22 0 24 0;
#X connect 23 0 20 0;
#X connect 24 0 1 0;
#X connect 24 0 26 0;
#X connect 25 0 17 0;
#X connect 34 0 9 1;
#X connect 36 0 35 0;
#X connect 37 0 35 0;
#X connect 37 0 99 0;
#X connect 38 0 36 0;
#X connect 39 0 113 0;
#X connect 39 0 38 0;
#X connect 39 0 55 0;
#X connect 40 0 14 0;
#X connect 41 0 44 0;
#X connect 43 0 48 0;
#X connect 44 0 48 1;
#X connect 45 0 42 0;
#X connect 46 0 50 0;
#X connect 47 0 52 0;
#X connect 48 0 45 0;
#X connect 48 0 46 0;
#X connect 49 0 44 0;
#X connect 50 0 111 1;
#X connect 51 0 43 0;
#X connect 52 0 44 0;
#X connect 52 0 45 0;
#X connect 52 0 46 0;
#X connect 54 0 100 0;
#X connect 55 0 37 0;
#X connect 56 0 61 0;
#X connect 57 0 58 0;
#X connect 58 0 59 0;
#X connect 59 0 56 1;
#X connect 59 0 74 0;
#X connect 60 0 56 0;
#X connect 61 0 71 0;
#X connect 62 0 64 0;
#X connect 62 0 63 0;
#X connect 62 0 75 0;
#X connect 62 0 49 0;
#X connect 63 0 60 0;
#X connect 64 0 57 0;
#X connect 65 0 68 0;
#X connect 66 0 65 0;
#X connect 67 0 49 0;
#X connect 68 0 58 0;
#X connect 70 0 51 0;
#X connect 70 0 109 0;
#X connect 71 0 68 0;
#X connect 71 1 70 0;
#X connect 72 0 73 0;
#X connect 73 0 70 0;
#X connect 74 0 72 0;
#X connect 74 1 66 0;
#X connect 74 1 60 0;
#X connect 75 0 70 0;
#X connect 76 0 80 0;
#X connect 77 0 90 0;
#X connect 78 0 76 1;
#X connect 78 0 91 0;
#X connect 79 0 76 0;
#X connect 80 0 86 0;
#X connect 81 0 93 0;
#X connect 81 0 89 0;
#X connect 81 0 94 0;
#X connect 82 0 84 0;
#X connect 83 0 82 0;
#X connect 84 0 90 0;
#X connect 85 0 96 0;
#X connect 85 0 109 0;
#X connect 86 0 84 0;
#X connect 86 1 85 0;
#X connect 87 0 88 0;
#X connect 88 0 85 0;
#X connect 89 0 85 0;
#X connect 90 0 78 0;
#X connect 91 0 83 0;
#X connect 91 0 79 0;
#X connect 91 1 87 0;
#X connect 93 0 77 0;
#X connect 94 0 79 0;
#X connect 95 0 48 0;
#X connect 96 0 95 0;
#X connect 98 0 100 1;
#X connect 99 0 98 0;
#X connect 100 0 0 0;
#X connect 100 0 0 1;
#X connect 100 0 30 0;
#X connect 100 0 35 0;
#X connect 100 0 35 1;
#X connect 101 0 98 0;
#X connect 102 0 25 0;
#X connect 106 0 111 0;
#X connect 107 0 106 0;
#X connect 108 0 106 0;
#X connect 109 0 112 0;
#X connect 109 0 110 0;
#X connect 110 0 107 0;
#X connect 111 0 54 1;
#X connect 112 0 106 0;
#X connect 113 0 35 0;
